<svg width="64" height="56" viewBox="0 0 64 56" fill="none" xmlns="http://www.w3.org/2000/svg">
<g clip-path="url(#clip0_221_4875)">
<path d="M57.6667 37.3333C56.3787 37.3333 55.3333 38.3787 55.3333 39.6667V49C55.3333 50.2857 54.2857 51.3333 53 51.3333H43.6667C42.3787 51.3333 41.3333 52.3787 41.3333 53.6667C41.3333 54.9547 42.3787 56 43.6667 56H53C56.8593 56 60 52.8593 60 49V39.6667C60 38.3787 58.9547 37.3333 57.6667 37.3333Z" fill="white"/>
<path d="M6.33333 37.3333C5.04533 37.3333 4 38.3787 4 39.6667V49C4 52.8593 7.14067 56 11 56H20.3333C21.6213 56 22.6667 54.9547 22.6667 53.6667C22.6667 52.3787 21.6213 51.3333 20.3333 51.3333H11C9.71433 51.3333 8.66667 50.2857 8.66667 49V39.6667C8.66667 38.3787 7.62133 37.3333 6.33333 37.3333Z" fill="white"/>
<path d="M53 -0.000167847H43.6667C42.3787 -0.000167847 41.3333 1.04517 41.3333 2.33317C41.3333 3.62117 42.3787 4.6665 43.6667 4.6665H53C54.2857 4.6665 55.3333 5.71417 55.3333 6.99983V16.3332C55.3333 17.6212 56.3787 18.6665 57.6667 18.6665C58.9547 18.6665 60 17.6212 60 16.3332V6.99983C60 3.1405 56.8593 -0.000167847 53 -0.000167847Z" fill="white"/>
<path d="M20.3333 -0.000167847H11C7.14066 -0.000167847 3.99999 3.1405 3.99999 6.99983V16.3332C3.99999 17.6212 5.04533 18.6665 6.33333 18.6665C7.62133 18.6665 8.66666 17.6212 8.66666 16.3332V6.99983C8.66666 5.71417 9.71433 4.6665 11 4.6665H20.3333C21.6213 4.6665 22.6667 3.62117 22.6667 2.33317C22.6667 1.04517 21.6213 -0.000167847 20.3333 -0.000167847Z" fill="white"/>
</g>
<rect y="25" width="64" height="5" rx="2.5" fill="white"/>
<defs>
<clipPath id="clip0_221_4875">
<rect width="56" height="56" fill="white" transform="matrix(1 0 0 -1 4 56)"/>
</clipPath>
</defs>
</svg>
