<svg width="372" height="372" viewBox="0 0 372 372" fill="none" xmlns="http://www.w3.org/2000/svg">
<circle cx="367.854" cy="3.52358" r="3.52358" transform="rotate(90 367.854 3.52358)" fill="white"/>
<circle cx="367.854" cy="55.5709" r="3.52358" transform="rotate(90 367.854 55.5709)" fill="white"/>
<circle cx="367.854" cy="107.618" r="3.52358" transform="rotate(90 367.854 107.618)" fill="white"/>
<circle cx="367.854" cy="159.665" r="3.52358" transform="rotate(90 367.854 159.665)" fill="#008080"/>
<circle cx="367.854" cy="211.712" r="3.52358" transform="rotate(90 367.854 211.712)" fill="#008080"/>
<circle cx="367.854" cy="263.759" r="3.52358" transform="rotate(90 367.854 263.759)" fill="#008080"/>
<circle cx="367.854" cy="315.807" r="3.52358" transform="rotate(90 367.854 315.807)" fill="#008080"/>
<circle cx="367.854" cy="367.854" r="3.52358" transform="rotate(90 367.854 367.854)" fill="#008080"/>
<circle cx="315.807" cy="3.52358" r="3.52358" transform="rotate(90 315.807 3.52358)" fill="white"/>
<circle cx="315.807" cy="55.5709" r="3.52358" transform="rotate(90 315.807 55.5709)" fill="white"/>
<circle cx="315.807" cy="107.618" r="3.52358" transform="rotate(90 315.807 107.618)" fill="white"/>
<circle cx="315.807" cy="159.665" r="3.52358" transform="rotate(90 315.807 159.665)" fill="#008080"/>
<circle cx="315.807" cy="211.712" r="3.52358" transform="rotate(90 315.807 211.712)" fill="#008080"/>
<circle cx="315.807" cy="263.759" r="3.52358" transform="rotate(90 315.807 263.759)" fill="#008080"/>
<circle cx="315.807" cy="315.806" r="3.52358" transform="rotate(90 315.807 315.806)" fill="#008080"/>
<circle cx="315.807" cy="367.854" r="3.52358" transform="rotate(90 315.807 367.854)" fill="#008080"/>
<circle cx="263.759" cy="3.52358" r="3.52358" transform="rotate(90 263.759 3.52358)" fill="white"/>
<circle cx="263.759" cy="55.5709" r="3.52358" transform="rotate(90 263.759 55.5709)" fill="white"/>
<circle cx="263.759" cy="107.618" r="3.52358" transform="rotate(90 263.759 107.618)" fill="white"/>
<circle cx="263.759" cy="159.665" r="3.52358" transform="rotate(90 263.759 159.665)" fill="#008080"/>
<circle cx="263.759" cy="211.712" r="3.52358" transform="rotate(90 263.759 211.712)" fill="#008080"/>
<circle cx="263.759" cy="263.759" r="3.52358" transform="rotate(90 263.759 263.759)" fill="#008080"/>
<circle cx="263.759" cy="315.806" r="3.52358" transform="rotate(90 263.759 315.806)" fill="#008080"/>
<circle cx="263.759" cy="367.854" r="3.52358" transform="rotate(90 263.759 367.854)" fill="#008080"/>
<circle cx="211.712" cy="3.52358" r="3.52358" transform="rotate(90 211.712 3.52358)" fill="white"/>
<circle cx="211.712" cy="55.5709" r="3.52358" transform="rotate(90 211.712 55.5709)" fill="white"/>
<circle cx="211.712" cy="107.618" r="3.52358" transform="rotate(90 211.712 107.618)" fill="white"/>
<circle cx="211.712" cy="159.665" r="3.52358" transform="rotate(90 211.712 159.665)" fill="#008080"/>
<circle cx="211.712" cy="211.712" r="3.52358" transform="rotate(90 211.712 211.712)" fill="#008080"/>
<circle cx="211.712" cy="263.759" r="3.52358" transform="rotate(90 211.712 263.759)" fill="#008080"/>
<circle cx="211.712" cy="315.806" r="3.52358" transform="rotate(90 211.712 315.806)" fill="#008080"/>
<circle cx="211.712" cy="367.854" r="3.52358" transform="rotate(90 211.712 367.854)" fill="#008080"/>
<circle cx="159.665" cy="3.52358" r="3.52358" transform="rotate(90 159.665 3.52358)" fill="white"/>
<circle cx="159.665" cy="55.5709" r="3.52358" transform="rotate(90 159.665 55.5709)" fill="white"/>
<circle cx="159.665" cy="107.618" r="3.52358" transform="rotate(90 159.665 107.618)" fill="white"/>
<circle cx="159.665" cy="159.665" r="3.52358" transform="rotate(90 159.665 159.665)" fill="#008080"/>
<circle cx="159.665" cy="211.712" r="3.52358" transform="rotate(90 159.665 211.712)" fill="#008080"/>
<circle cx="159.665" cy="263.759" r="3.52358" transform="rotate(90 159.665 263.759)" fill="#008080"/>
<circle cx="159.665" cy="315.806" r="3.52358" transform="rotate(90 159.665 315.806)" fill="#008080"/>
<circle cx="159.665" cy="367.854" r="3.52358" transform="rotate(90 159.665 367.854)" fill="#008080"/>
<circle cx="107.618" cy="3.52358" r="3.52358" transform="rotate(90 107.618 3.52358)" fill="white"/>
<circle cx="107.618" cy="55.5709" r="3.52358" transform="rotate(90 107.618 55.5709)" fill="white"/>
<circle cx="107.618" cy="107.618" r="3.52358" transform="rotate(90 107.618 107.618)" fill="white"/>
<circle cx="107.618" cy="159.665" r="3.52358" transform="rotate(90 107.618 159.665)" fill="#008080"/>
<circle cx="107.618" cy="211.712" r="3.52358" transform="rotate(90 107.618 211.712)" fill="#008080"/>
<circle cx="107.618" cy="263.759" r="3.52358" transform="rotate(90 107.618 263.759)" fill="#008080"/>
<circle cx="107.618" cy="315.806" r="3.52358" transform="rotate(90 107.618 315.806)" fill="#008080"/>
<circle cx="107.618" cy="367.854" r="3.52358" transform="rotate(90 107.618 367.854)" fill="#008080"/>
<circle cx="55.5708" cy="3.52358" r="3.52358" transform="rotate(90 55.5708 3.52358)" fill="white"/>
<circle cx="55.5708" cy="55.5709" r="3.52358" transform="rotate(90 55.5708 55.5709)" fill="white"/>
<circle cx="55.5708" cy="107.618" r="3.52358" transform="rotate(90 55.5708 107.618)" fill="white"/>
<circle cx="55.5708" cy="159.665" r="3.52358" transform="rotate(90 55.5708 159.665)" fill="#008080"/>
<circle cx="55.5708" cy="211.712" r="3.52358" transform="rotate(90 55.5708 211.712)" fill="#008080"/>
<circle cx="55.5708" cy="263.759" r="3.52358" transform="rotate(90 55.5708 263.759)" fill="#008080"/>
<circle cx="55.5708" cy="315.806" r="3.52358" transform="rotate(90 55.5708 315.806)" fill="#008080"/>
<circle cx="55.5708" cy="367.854" r="3.52358" transform="rotate(90 55.5708 367.854)" fill="#008080"/>
<circle cx="3.52366" cy="3.52358" r="3.52358" transform="rotate(90 3.52366 3.52358)" fill="white"/>
<circle cx="3.5236" cy="55.5709" r="3.52358" transform="rotate(90 3.5236 55.5709)" fill="white"/>
<circle cx="3.5236" cy="107.618" r="3.52358" transform="rotate(90 3.5236 107.618)" fill="white"/>
<circle cx="3.5236" cy="159.665" r="3.52358" transform="rotate(90 3.5236 159.665)" fill="#008080"/>
<circle cx="3.5236" cy="211.712" r="3.52358" transform="rotate(90 3.5236 211.712)" fill="#008080"/>
<circle cx="3.5236" cy="263.759" r="3.52358" transform="rotate(90 3.5236 263.759)" fill="#008080"/>
<circle cx="3.5236" cy="315.806" r="3.52358" transform="rotate(90 3.5236 315.806)" fill="#008080"/>
<circle cx="3.5236" cy="367.854" r="3.52358" transform="rotate(90 3.5236 367.854)" fill="#008080"/>
</svg>
