<svg width="121" height="70" viewBox="0 0 121 70" fill="none" xmlns="http://www.w3.org/2000/svg">
<g clip-path="url(#clip0_221_4952)">
<path d="M73.7919 31.4804C76.3609 28.259 77.7597 24.2416 77.7597 20C77.7597 15.7583 76.3506 11.7113 73.7626 8.48328C73.7998 8.5641 73.8354 8.64575 73.871 8.72823C74.4082 9.97936 74.773 11.2792 74.9296 12.6227C75.9819 14.8495 76.5729 17.3542 76.5729 20C76.5729 22.6458 75.9795 25.1579 74.9249 27.3872C74.7682 28.8231 74.3861 30.1889 73.7919 31.4804ZM47.6691 32.3216C44.5019 28.941 42.7597 24.4866 42.7597 19.7526C42.7597 15.9917 43.8587 12.4058 45.9 9.39627C45.4799 10.6482 45.2441 11.953 45.1847 13.3055C44.3872 15.2915 43.9465 17.4689 43.9465 19.7526C43.9465 24.3893 45.7623 28.593 48.6929 31.628L47.6691 32.3216Z" fill="white"/>
<path d="M74.2239 14.0553C74.2168 12.1988 73.8061 10.419 73.0798 8.72829C71.912 6.00911 70.0614 3.88375 67.7013 2.24746C65.7004 0.85942 63.4763 0.139419 61.0695 0.0206565C59.2751 -0.0675909 57.5218 0.119626 55.8176 0.723337C53.4859 1.54973 51.5238 2.96169 49.8805 4.85942C46.7181 8.51056 45.7156 12.7901 46.5662 17.572C47.0369 20.2203 48.2213 22.5064 49.9699 24.4875C53.2035 28.1502 57.2069 29.5588 61.8955 28.9048C64.0594 28.6029 66.0105 27.7163 67.7535 26.3382C68.1491 26.0248 68.5305 25.6949 68.9403 25.3155C68.8841 26.1947 68.7457 26.9914 68.5423 27.7774C67.9774 29.9662 66.9251 31.8384 65.088 33.0978C64.175 33.7238 63.2311 34.1403 62.265 34.3654C61.7982 34.4743 59.6984 34.9312 57.2655 33.9877C54.562 32.9394 53.1703 30.8306 52.7327 30.1015C51.2848 31.0846 49.8378 32.0677 48.3899 33.0516C48.9477 33.9737 49.8607 35.2627 51.2603 36.5007C53.7621 38.7126 56.3073 39.4194 57.1349 39.624C58.6065 39.9885 60.1565 40.0924 61.7895 39.9184C63.6979 39.7147 65.4812 39.1217 67.1285 38.1048C69.0337 36.9287 70.6066 35.3658 71.8756 33.4796C73.3726 31.2553 74.182 28.7687 74.2136 26.0553C74.2603 22.0561 74.2397 18.0561 74.2239 14.0561V14.0553ZM60.2404 23.652C55.3975 23.7295 51.4613 19.3567 51.5032 14.4627C51.5444 9.63963 55.5873 5.42355 60.2728 5.43509C64.8957 5.44581 69.0368 9.64623 69.0163 14.5914C68.9965 19.4104 65.0603 23.737 60.2404 23.652Z" fill="white"/>
</g>
<path d="M27.4271 56.5589C27.2991 56.0963 27.1194 55.6876 26.8879 55.3327C26.6564 54.9715 26.3731 54.6673 26.0381 54.4202C25.7091 54.1667 25.3314 53.9734 24.9049 53.8403C24.4846 53.7072 24.0185 53.6407 23.5068 53.6407C22.5503 53.6407 21.7096 53.8878 20.9846 54.3821C20.2657 54.8764 19.7052 55.5957 19.3032 56.5399C18.9011 57.4778 18.7 58.6248 18.7 59.981C18.7 61.3371 18.898 62.4905 19.294 63.4411C19.69 64.3916 20.2505 65.1172 20.9755 65.6179C21.7004 66.1122 22.5564 66.3593 23.5433 66.3593C24.4389 66.3593 25.2034 66.1945 25.837 65.865C26.4767 65.5292 26.9641 65.057 27.2991 64.4487C27.6403 63.8403 27.8109 63.121 27.8109 62.2909L28.615 62.4144H23.79V59.3156H31.6215V61.7681C31.6215 63.4791 31.2743 64.9493 30.5798 66.1787C29.8853 67.4018 28.9288 68.346 27.7104 69.0114C26.4919 69.6705 25.0968 70 23.525 70C21.7705 70 20.2292 69.5976 18.9011 68.7928C17.573 67.9816 16.5373 66.8314 15.7941 65.3422C15.0569 63.8466 14.6883 62.0722 14.6883 60.019C14.6883 58.4411 14.9076 57.0342 15.3463 55.7985C15.791 54.5564 16.4124 53.5044 17.2105 52.6426C18.0086 51.7807 18.9376 51.1248 19.9977 50.6749C21.0577 50.225 22.2061 50 23.4428 50C24.5028 50 25.4898 50.1616 26.4036 50.4848C27.3174 50.8016 28.1277 51.2516 28.8344 51.8346C29.5472 52.4176 30.129 53.1115 30.5798 53.9163C31.0306 54.7148 31.32 55.5957 31.4479 56.5589H27.4271Z" fill="white"/>
<path d="M34.5938 69.7338V50.2662H41.9775C43.3909 50.2662 44.5971 50.5292 45.5962 51.0551C46.6014 51.5748 47.366 52.3131 47.8899 53.27C48.42 54.2205 48.685 55.339 48.685 56.6255C48.685 57.9183 48.4169 59.0304 47.8808 59.962C47.3447 60.8872 46.5679 61.597 45.5505 62.0913C44.5392 62.5856 43.3147 62.8327 41.877 62.8327H36.9332V59.5247H41.2373C41.9927 59.5247 42.6202 59.417 43.1198 59.2015C43.6193 58.9861 43.9909 58.6629 44.2346 58.2319C44.4844 57.801 44.6093 57.2655 44.6093 56.6255C44.6093 55.9791 44.4844 55.4341 44.2346 54.9905C43.9909 54.5469 43.6163 54.211 43.1106 53.9829C42.6111 53.7484 41.9805 53.6312 41.219 53.6312H38.5506V69.7338H34.5938ZM44.7007 60.8745L49.3521 69.7338H44.984L40.4331 60.8745H44.7007Z" fill="white"/>
<path d="M68.6795 60C68.6795 62.1229 68.2927 63.929 67.519 65.4183C66.7513 66.9075 65.7035 68.045 64.3754 68.8308C63.0534 69.6103 61.5669 70 59.9159 70C58.2527 70 56.7602 69.6071 55.4382 68.8213C54.1162 68.0355 53.0713 66.898 52.3037 65.4087C51.5361 63.9195 51.1523 62.1166 51.1523 60C51.1523 57.8771 51.5361 56.071 52.3037 54.5818C53.0713 53.0925 54.1162 51.9582 55.4382 51.1787C56.7602 50.3929 58.2527 50 59.9159 50C61.5669 50 63.0534 50.3929 64.3754 51.1787C65.7035 51.9582 66.7513 53.0925 67.519 54.5818C68.2927 56.071 68.6795 57.8771 68.6795 60ZM64.6678 60C64.6678 58.6248 64.4698 57.4651 64.0738 56.5209C63.6839 55.5767 63.1326 54.8606 62.4198 54.3726C61.707 53.8847 60.8724 53.6407 59.9159 53.6407C58.9594 53.6407 58.1248 53.8847 57.412 54.3726C56.6992 54.8606 56.1448 55.5767 55.7489 56.5209C55.359 57.4651 55.164 58.6248 55.164 60C55.164 61.3752 55.359 62.5349 55.7489 63.4791C56.1448 64.4233 56.6992 65.1394 57.412 65.6274C58.1248 66.1153 58.9594 66.3593 59.9159 66.3593C60.8724 66.3593 61.707 66.1153 62.4198 65.6274C63.1326 65.1394 63.6839 64.4233 64.0738 63.4791C64.4698 62.5349 64.6678 61.3752 64.6678 60Z" fill="white"/>
<path d="M88.8088 60C88.8088 62.1229 88.422 63.929 87.6483 65.4183C86.8807 66.9075 85.8328 68.045 84.5047 68.8308C83.1827 69.6103 81.6962 70 80.0452 70C78.3821 70 76.8895 69.6071 75.5675 68.8213C74.2455 68.0355 73.2007 66.898 72.4331 65.4087C71.6654 63.9195 71.2816 62.1166 71.2816 60C71.2816 57.8771 71.6654 56.071 72.4331 54.5818C73.2007 53.0925 74.2455 51.9582 75.5675 51.1787C76.8895 50.3929 78.3821 50 80.0452 50C81.6962 50 83.1827 50.3929 84.5047 51.1787C85.8328 51.9582 86.8807 53.0925 87.6483 54.5818C88.422 56.071 88.8088 57.8771 88.8088 60ZM84.7971 60C84.7971 58.6248 84.5991 57.4651 84.2031 56.5209C83.8132 55.5767 83.2619 54.8606 82.5491 54.3726C81.8363 53.8847 81.0017 53.6407 80.0452 53.6407C79.0888 53.6407 78.2541 53.8847 77.5414 54.3726C76.8286 54.8606 76.2742 55.5767 75.8782 56.5209C75.4883 57.4651 75.2933 58.6248 75.2933 60C75.2933 61.3752 75.4883 62.5349 75.8782 63.4791C76.2742 64.4233 76.8286 65.1394 77.5414 65.6274C78.2541 66.1153 79.0888 66.3593 80.0452 66.3593C81.0017 66.3593 81.8363 66.1153 82.5491 65.6274C83.2619 65.1394 83.8132 64.4233 84.2031 63.4791C84.5991 62.5349 84.7971 61.3752 84.7971 60Z" fill="white"/>
<path d="M91.7399 69.7338V50.2662H99.1237C100.543 50.2662 101.752 50.5482 102.752 51.1122C103.751 51.6698 104.512 52.4461 105.036 53.4411C105.566 54.4297 105.831 55.5703 105.831 56.8631C105.831 58.1559 105.563 59.2966 105.027 60.2852C104.491 61.2738 103.714 62.0437 102.697 62.5951C101.685 63.1464 100.461 63.4221 99.0231 63.4221H94.3169V60.1236H98.3835C99.145 60.1236 99.7725 59.9873 100.266 59.7148C100.766 59.436 101.137 59.0526 101.381 58.5646C101.631 58.0703 101.755 57.5032 101.755 56.8631C101.755 56.2167 101.631 55.6527 101.381 55.1711C101.137 54.6831 100.766 54.3061 100.266 54.0399C99.7664 53.7674 99.1328 53.6312 98.3652 53.6312H95.6968V69.7338H91.7399Z" fill="white"/>
<defs>
<clipPath id="clip0_221_4952">
<rect width="35" height="40" fill="white" transform="translate(42.7597)"/>
</clipPath>
</defs>
</svg>
