<svg width="912" height="200" viewBox="0 0 912 200" fill="none" xmlns="http://www.w3.org/2000/svg">
<g opacity="0.1">
<path d="M127.388 65.5894C126.108 60.9632 124.311 56.8758 121.996 53.327C119.681 49.7148 116.848 46.673 113.497 44.2015C110.208 41.6667 106.431 39.7338 102.166 38.403C97.9624 37.0723 93.3018 36.4069 88.1844 36.4069C78.6197 36.4069 70.2125 38.8783 62.9627 43.8213C55.774 48.7643 50.1692 55.9569 46.1483 65.3992C42.1275 74.7782 40.1171 86.2484 40.1171 99.8099C40.1171 113.371 42.097 124.905 46.0569 134.411C50.0168 143.916 55.6217 151.172 62.8714 156.179C70.1211 161.122 78.6806 163.593 88.5499 163.593C97.5054 163.593 105.151 161.945 111.487 158.65C117.884 155.292 122.758 150.57 126.108 144.487C129.52 138.403 131.226 131.21 131.226 122.909L139.267 124.144H91.0173V93.1559H169.332V117.681C169.332 134.791 165.86 149.493 158.915 161.787C151.97 174.018 142.405 183.46 130.22 190.114C118.036 196.705 104.085 200 88.3672 200C70.8217 200 55.4084 195.976 42.1275 187.928C28.8465 179.816 18.4898 168.314 11.0573 153.422C3.68577 138.466 0 120.722 0 100.19C0 84.4107 2.19319 70.3422 6.57956 57.9848C11.0269 45.564 17.2409 35.0444 25.2216 26.4259C33.2024 17.8074 42.493 11.2484 53.0934 6.74905C63.6938 2.24968 75.1776 0 87.5447 0C98.1451 0 108.014 1.61597 117.153 4.84791C126.291 8.01648 134.394 12.5158 141.461 18.346C148.588 24.1762 154.406 31.1153 158.915 39.1635C163.423 47.1483 166.317 55.9569 167.596 65.5894H127.388Z" fill="url(#paint0_linear_221_4940)"/>
<path d="M199.055 197.338V2.6616H272.892C287.026 2.6616 299.088 5.29151 309.079 10.5513C319.132 15.7478 326.777 23.1305 332.017 32.6996C337.317 42.2053 339.967 53.3904 339.967 66.2548C339.967 79.1825 337.286 90.3042 331.925 99.6198C326.564 108.872 318.796 115.97 308.623 120.913C298.509 125.856 286.264 128.327 271.887 128.327H222.449V95.2471H265.49C273.044 95.2471 279.319 94.1698 284.315 92.0152C289.31 89.8606 293.027 86.6286 295.463 82.3194C297.961 78.0101 299.21 72.6553 299.21 66.2548C299.21 59.7909 297.961 54.3409 295.463 49.9049C293.027 45.4689 289.28 42.1103 284.223 39.8289C279.228 37.4842 272.922 36.3118 265.307 36.3118H238.623V197.338H199.055ZM300.124 108.745L346.638 197.338H302.957L257.448 108.745H300.124Z" fill="url(#paint1_linear_221_4940)"/>
<path d="M539.912 100C539.912 121.229 536.044 139.29 528.307 154.183C520.631 169.075 510.152 180.45 496.871 188.308C483.651 196.103 468.786 200 452.276 200C435.645 200 420.719 196.071 407.499 188.213C394.279 180.355 383.831 168.98 376.154 154.087C368.478 139.195 364.64 121.166 364.64 100C364.64 78.7706 368.478 60.7098 376.154 45.8175C383.831 30.9252 394.279 19.5818 407.499 11.7871C420.719 3.92903 435.645 0 452.276 0C468.786 0 483.651 3.92903 496.871 11.7871C510.152 19.5818 520.631 30.9252 528.307 45.8175C536.044 60.7098 539.912 78.7706 539.912 100ZM499.795 100C499.795 86.2484 497.815 74.6515 493.855 65.2091C489.956 55.7668 484.443 48.6058 477.315 43.7262C470.187 38.8467 461.841 36.4069 452.276 36.4069C442.712 36.4069 434.365 38.8467 427.237 43.7262C420.11 48.6058 414.566 55.7668 410.606 65.2091C406.707 74.6515 404.757 86.2484 404.757 100C404.757 113.752 406.707 125.349 410.606 134.791C414.566 144.233 420.11 151.394 427.237 156.274C434.365 161.153 442.712 163.593 452.276 163.593C461.841 163.593 470.187 161.153 477.315 156.274C484.443 151.394 489.956 144.233 493.855 134.791C497.815 125.349 499.795 113.752 499.795 100Z" fill="url(#paint2_linear_221_4940)"/>
<path d="M741.206 100C741.206 121.229 737.337 139.29 729.6 154.183C721.924 169.075 711.446 180.45 698.165 188.308C684.945 196.103 670.08 200 653.57 200C636.938 200 622.012 196.071 608.792 188.213C595.572 180.355 585.124 168.98 577.448 154.087C569.772 139.195 565.934 121.166 565.934 100C565.934 78.7706 569.772 60.7098 577.448 45.8175C585.124 30.9252 595.572 19.5818 608.792 11.7871C622.012 3.92903 636.938 0 653.57 0C670.08 0 684.945 3.92903 698.165 11.7871C711.446 19.5818 721.924 30.9252 729.6 45.8175C737.337 60.7098 741.206 78.7706 741.206 100ZM701.089 100C701.089 86.2484 699.109 74.6515 695.149 65.2091C691.25 55.7668 685.737 48.6058 678.609 43.7262C671.481 38.8467 663.135 36.4069 653.57 36.4069C644.005 36.4069 635.659 38.8467 628.531 43.7262C621.403 48.6058 615.859 55.7668 611.899 65.2091C608 74.6515 606.051 86.2484 606.051 100C606.051 113.752 608 125.349 611.899 134.791C615.859 144.233 621.403 151.394 628.531 156.274C635.659 161.153 644.005 163.593 653.57 163.593C663.135 163.593 671.481 161.153 678.609 156.274C685.737 151.394 691.25 144.233 695.149 134.791C699.109 125.349 701.089 113.752 701.089 100Z" fill="url(#paint3_linear_221_4940)"/>
<path d="M770.517 197.338V2.6616H844.354C858.549 2.6616 870.642 5.48162 880.633 11.1217C890.624 16.6984 898.24 24.4613 903.479 34.4106C908.779 44.2966 911.429 55.7034 911.429 68.6312C911.429 81.5589 908.749 92.9658 903.387 102.852C898.026 112.738 890.259 120.437 880.085 125.951C869.972 131.464 857.727 134.221 843.349 134.221H796.287V101.236H836.952C844.567 101.236 850.842 99.8733 855.777 97.1483C860.773 94.3599 864.489 90.526 866.926 85.6464C869.423 80.7034 870.672 75.0317 870.672 68.6312C870.672 62.1673 869.423 56.5272 866.926 51.711C864.489 46.8314 860.773 43.0608 855.777 40.3992C850.781 37.6743 844.446 36.3118 836.769 36.3118H810.086V197.338H770.517Z" fill="url(#paint4_linear_221_4940)"/>
</g>
<defs>
<linearGradient id="paint0_linear_221_4940" x1="455.715" y1="0" x2="456" y2="172.5" gradientUnits="userSpaceOnUse">
<stop stop-color="#0F663C"/>
<stop offset="1" stop-color="#0F663C" stop-opacity="0"/>
</linearGradient>
<linearGradient id="paint1_linear_221_4940" x1="455.715" y1="0" x2="456" y2="172.5" gradientUnits="userSpaceOnUse">
<stop stop-color="#0F663C"/>
<stop offset="1" stop-color="#0F663C" stop-opacity="0"/>
</linearGradient>
<linearGradient id="paint2_linear_221_4940" x1="455.715" y1="0" x2="456" y2="172.5" gradientUnits="userSpaceOnUse">
<stop stop-color="#0F663C"/>
<stop offset="1" stop-color="#0F663C" stop-opacity="0"/>
</linearGradient>
<linearGradient id="paint3_linear_221_4940" x1="455.715" y1="0" x2="456" y2="172.5" gradientUnits="userSpaceOnUse">
<stop stop-color="#0F663C"/>
<stop offset="1" stop-color="#0F663C" stop-opacity="0"/>
</linearGradient>
<linearGradient id="paint4_linear_221_4940" x1="455.715" y1="0" x2="456" y2="172.5" gradientUnits="userSpaceOnUse">
<stop stop-color="#0F663C"/>
<stop offset="1" stop-color="#0F663C" stop-opacity="0"/>
</linearGradient>
</defs>
</svg>
