<svg width="1726" height="941" viewBox="0 0 1726 941" fill="none" xmlns="http://www.w3.org/2000/svg">
<rect width="1726" height="941" fill="#F0FDFA"/>
<g opacity="0.5">
<path d="M1009.16 451.495C916.148 473.534 866.005 549.397 903.359 588.181C944.628 631.009 1202.68 624.504 1232.29 614.06C1261.9 603.617 1019.83 570.199 1052.86 530.791C1089.55 487.05 1273.77 486.99 1268.75 468.312C1263.82 449.935 1116.66 426.024 1009.16 451.495Z" stroke="#008080" stroke-opacity="0.3" stroke-width="2" stroke-miterlimit="10"/>
<path d="M980.04 446.105C871.023 465.31 823.721 557.138 871.777 600.399C926.242 649.398 1206.6 631.236 1248.22 623.482C1284.09 616.808 1051.21 571.867 1079.05 524.248C1109.27 472.513 1275.42 464.11 1263.01 452.106C1249.67 439.238 1107.97 423.622 980.04 446.105Z" stroke="#008080" stroke-opacity="0.3" stroke-width="2" stroke-miterlimit="10"/>
<path d="M950.923 440.727C826.071 457.04 781.525 564.869 840.195 612.607C907.971 667.824 1208.28 637.815 1264.14 632.917C1304.74 629.316 1082.79 573.596 1105.21 517.683C1129.14 458.049 1280.81 440.559 1257.27 435.986C1239.69 427.884 1099.73 421.27 950.923 440.727Z" stroke="#008080" stroke-opacity="0.3" stroke-width="2" stroke-miterlimit="10"/>
<path d="M921.805 435.303C781.206 448.843 739.415 572.553 808.699 624.793C889.903 686.107 1213.94 653.061 1280.15 642.318C1321.62 635.584 1114.58 575.302 1131.46 511.13C1149.23 443.598 1284.41 417.334 1251.61 419.819C1227.63 416.854 1091.46 418.99 921.805 435.303Z" stroke="#008080" stroke-opacity="0.3" stroke-width="2" stroke-miterlimit="10"/>
<path d="M892.686 429.95C736.396 440.753 697.36 580.283 777.028 637.049C871.689 704.509 1212.05 660.312 1295.98 651.777C1343.08 646.975 1146.27 577.09 1157.56 504.624C1169.16 429.194 1290.96 397.18 1245.78 403.698C1216.84 407.863 1083.25 416.77 892.686 429.95Z" stroke="#008080" stroke-opacity="0.3" stroke-width="2" stroke-miterlimit="10"/>
<path d="M863.6 424.561C691.592 432.687 655.34 587.99 745.448 649.257C853.653 722.851 1210.69 654.706 1311.93 661.26C1364.4 664.633 1178.18 578.892 1183.75 498.119C1189.55 414.814 1295.4 373.39 1240.04 387.602C1205.59 396.388 1075.08 414.586 863.6 424.561Z" stroke="#008080" stroke-opacity="0.3" stroke-width="2" stroke-miterlimit="10"/>
<path d="M834.484 419.181C646.786 424.631 613.347 595.635 713.838 661.474C835.644 741.178 1211.94 659.65 1327.83 670.633C1384.53 676.011 1210.05 580.606 1209.88 491.527C1209.71 400.3 1298.91 349.644 1234.27 371.395C1193.73 385.043 1066.9 412.423 834.484 419.181Z" stroke="#008080" stroke-opacity="0.3" stroke-width="2" stroke-miterlimit="10"/>
<path d="M805.361 413.793C601.974 416.601 571.435 603.354 682.25 673.695C817.571 759.509 1213.5 664.416 1343.75 680.069C1404.82 687.403 1242.01 582.335 1236.06 484.986C1230 385.884 1302.19 326.094 1228.52 355.251C1181.66 373.785 1058.66 410.3 805.361 413.793Z" stroke="#008080" stroke-opacity="0.3" stroke-width="2" stroke-miterlimit="10"/>
<path d="M776.246 408.403C557.169 408.583 529.386 611.036 650.67 685.915C799.564 777.838 1215.33 669.109 1359.67 689.516C1425.27 698.794 1274 584.1 1262.22 478.456C1250.31 371.456 1305.41 302.651 1222.78 339.106C1169.48 362.597 1050.51 408.187 776.246 408.403Z" stroke="#008080" stroke-opacity="0.3" stroke-width="2" stroke-miterlimit="10"/>
<path d="M747.128 403.026C512.216 400.625 487.42 618.707 619.087 698.123C781.495 796.145 1217.39 673.672 1375.59 698.927C1445.83 710.139 1305.99 585.829 1288.38 471.903C1270.63 357.004 1308.68 279.232 1217.01 322.938C1157.27 351.446 1042.31 406.099 747.128 403.026Z" stroke="#008080" stroke-opacity="0.3" stroke-width="2" stroke-miterlimit="10"/>
<path d="M718.011 397.635C467.496 392.581 445.397 626.376 587.504 710.341C763.601 814.46 1219.74 678.219 1391.51 708.36C1466.48 721.492 1338.03 587.568 1314.57 465.359C1290.99 342.55 1311.85 255.872 1211.27 306.791C1145.03 340.317 1034.07 404.02 718.011 397.635Z" stroke="#008080" stroke-opacity="0.3" stroke-width="2" stroke-miterlimit="10"/>
<path d="M688.892 392.246C422.658 384.588 403.546 634.047 555.92 722.562C745.648 832.767 1221.97 682.734 1407.43 717.761C1487.16 732.837 1370.05 589.322 1340.73 458.782C1311.35 328.075 1315.06 232.502 1205.52 290.612C1132.82 329.203 1025.83 401.945 688.892 392.246Z" stroke="#008080" stroke-opacity="0.3" stroke-width="2" stroke-miterlimit="10"/>
<path d="M659.778 386.869C377.796 376.605 361.614 641.766 524.341 734.77C727.7 851.073 1224.44 687.235 1423.39 727.219C1507.96 744.217 1402.13 591.038 1366.92 452.264C1331.71 313.49 1318.29 209.203 1199.79 274.455C1120.58 318.1 1017.6 399.893 659.778 386.869Z" stroke="#008080" stroke-opacity="0.3" stroke-width="2" stroke-miterlimit="10"/>
<path d="M630.661 381.479C332.932 368.623 319.678 649.376 492.73 746.99C709.749 869.427 1227.02 691.773 1439.28 736.655C1528.75 755.584 1434.18 592.767 1393.08 445.723C1352.1 299.194 1321.54 185.904 1194.02 258.334C1108.35 307.009 1009.36 397.828 630.661 381.479Z" stroke="#008080" stroke-opacity="0.3" stroke-width="2" stroke-miterlimit="10"/>
<path d="M601.539 376.089C288.061 360.64 278.201 656.901 461.229 759.208C692.459 887.503 1229.77 696.189 1455.29 746.076C1549.66 766.951 1466.33 594.495 1419.32 439.18C1372.57 284.741 1324.87 162.592 1188.36 242.176C1096.1 295.916 1001.06 395.787 601.539 376.089Z" stroke="#008080" stroke-opacity="0.3" stroke-width="2" stroke-miterlimit="10"/>
<path d="M572.425 370.712C243.2 352.671 236.239 664.573 429.563 771.405C674.365 905.846 1232.35 700.584 1471.12 755.488C1570.45 778.295 1498.33 596.2 1445.4 432.591C1392.91 270.23 1328.03 139.258 1182.53 225.972C1083.87 284.826 992.801 393.735 572.425 370.712Z" stroke="#008080" stroke-opacity="0.3" stroke-width="2" stroke-miterlimit="10"/>
<path d="M543.308 365.321C198.19 344.699 194.245 672.254 397.981 783.636C656.355 924.078 1235.08 705.12 1487.05 764.934C1591.45 789.697 1531.1 597.915 1471.56 426.084C1413.99 255.776 1331.28 116.006 1176.79 209.874C1071.63 273.746 984.507 391.693 543.308 365.321Z" stroke="#008080" stroke-opacity="0.3" stroke-width="2" stroke-miterlimit="10"/>
<path d="M514.191 359.931C153.326 336.992 152.253 679.936 366.4 795.855C638.347 942.467 1237.87 709.585 1503 774.368C1612.25 801.064 1563.03 599.643 1497.75 419.541C1434.26 241.323 1334.53 92.7303 1171.02 193.717C1059.39 262.666 976.099 389.988 514.191 359.931Z" stroke="#008080" stroke-opacity="0.3" stroke-width="2" stroke-miterlimit="10"/>
<path d="M485.069 354.555C108.456 328.963 110.312 687.607 334.812 808.076C620.303 960.786 1240.67 714.039 1518.91 783.805C1633.15 812.445 1594.99 601.349 1523.9 413.001C1454.53 226.872 1337.8 69.4449 1165.27 177.574C1047.06 251.648 967.828 387.877 485.069 354.555Z" stroke="#008080" stroke-opacity="0.3" stroke-width="2" stroke-miterlimit="10"/>
<path d="M455.953 349.163C63.5911 320.931 68.2894 695.288 303.231 820.282C602.294 979.065 1243.55 718.503 1534.84 793.225C1654.09 823.823 1627.09 603.112 1550.06 406.493C1474.66 212.454 1340.59 46.0718 1159.53 161.451C1034.56 240.422 959.564 385.75 455.953 349.163Z" stroke="#008080" stroke-opacity="0.3" stroke-width="2" stroke-miterlimit="10"/>
<path d="M426.838 343.774C18.7287 312.865 26.2111 702.982 271.651 832.501C584.287 997.419 1246.42 722.968 1550.76 802.612C1675.06 835.166 1658.91 604.793 1576.25 399.867C1495.08 197.954 1344.1 22.833 1153.79 145.258C1022.5 229.403 951.359 383.686 426.838 343.774Z" stroke="#008080" stroke-opacity="0.3" stroke-width="2" stroke-miterlimit="10"/>
<path d="M1148.02 129.114C1010.43 218.373 943.005 381.514 397.719 338.397C-26.1673 304.871 -15.6977 710.642 240.038 844.722C566.276 1015.75 1249.29 727.435 1566.68 812.084C1823.35 880.553 1550.35 -131.929 1148.02 129.114Z" stroke="#008080" stroke-opacity="0.3" stroke-width="2" stroke-miterlimit="10"/>
</g>
</svg>
