<svg width="389" height="600" viewBox="0 0 389 600" fill="none" xmlns="http://www.w3.org/2000/svg">
<g opacity="0.05" clip-path="url(#clip0_221_4909)">
<path d="M465.483 472.208C504.018 423.886 525 363.626 525 300.001C525 236.376 503.863 175.67 465.043 127.25C465.601 128.462 466.135 129.687 466.669 130.924C474.728 149.691 480.199 169.188 482.549 189.341C498.333 222.743 507.198 260.314 507.198 300.001C507.198 339.688 498.297 377.37 482.477 410.81C480.128 432.348 474.395 452.835 465.483 472.208ZM73.6403 484.826C26.1331 434.117 0 367.3 0 296.289C0 239.877 16.4845 186.087 47.1037 140.944C40.8018 159.724 37.2652 179.295 36.3751 199.584C24.4123 229.374 17.8018 262.034 17.8018 296.289C17.8018 365.84 45.0387 428.896 88.9973 474.422L73.6403 484.826Z" fill="white"/>
<path d="M471.963 210.83C471.856 182.982 465.696 156.285 454.802 130.924C437.285 90.1365 409.526 58.256 374.124 33.7115C344.11 12.8908 310.749 2.09081 274.647 0.309361C247.73 -1.01436 221.431 1.7939 195.868 10.8496C160.893 23.2455 131.461 44.425 106.811 72.8911C59.375 127.658 44.3383 191.852 57.0963 263.58C64.1577 303.304 81.924 337.597 108.152 367.313C156.656 422.253 216.708 443.383 287.037 433.573C319.496 429.045 348.762 415.746 374.907 395.074C380.841 390.373 386.561 385.424 392.709 379.733C391.866 392.921 389.789 404.872 386.739 416.661C378.266 449.494 362.481 477.577 334.924 496.468C321.228 505.858 307.07 512.105 292.579 515.482C285.577 517.115 254.08 523.969 217.586 509.816C177.033 494.093 156.158 462.46 149.595 451.523C127.877 466.27 106.17 481.016 84.4518 495.775C92.8187 509.606 106.514 528.942 127.509 547.511C165.035 580.691 203.214 591.293 215.628 594.361C237.702 599.829 260.951 601.388 285.447 598.778C314.072 595.722 340.822 586.827 365.531 571.573C394.109 553.932 417.703 530.489 436.739 502.196C459.193 468.831 471.334 431.532 471.808 390.83C472.509 330.843 472.2 270.842 471.963 210.842V210.83ZM262.209 354.781C189.566 355.944 130.523 290.352 131.152 216.941C131.769 144.594 192.414 81.353 262.696 81.5261C332.04 81.687 394.157 144.693 393.848 218.871C393.551 291.156 334.509 356.055 262.209 354.781Z" fill="white"/>
</g>
<defs>
<clipPath id="clip0_221_4909">
<rect width="525" height="600" fill="white"/>
</clipPath>
</defs>
</svg>
